<svg width="300" height="300" viewBox="0 0 300 300" xmlns="http://www.w3.org/2000/svg">
  <defs>
    <linearGradient id="eulerhub-gradient" x1="0%" y1="0%" x2="100%" y2="100%">
      <stop offset="0%" stop-color="#6573ff"/>
      <stop offset="50%" stop-color="#8b5cf6"/>
      <stop offset="100%" stop-color="#06b6d4"/>
    </linearGradient>
    <radialGradient id="eulerhub-bg" cx="50%" cy="50%" r="70%">
      <stop offset="0%" stop-color="#1a1a2e"/>
      <stop offset="100%" stop-color="#0a0a0f"/>
    </radialGradient>
    <filter id="shadow" x="-50%" y="-50%" width="200%" height="200%">
      <feDropShadow dx="0" dy="8" stdDeviation="8" flood-color="#232946" flood-opacity="0.25"/>
    </filter>
  </defs>
  <circle cx="150" cy="150" r="140" fill="url(#eulerhub-bg)"/>
  <g filter="url(#shadow)">
    <!-- Stylized E -->
    <polygon points="90,210 90,60 210,60 210,80 110,80 110,110 190,110 190,130 110,130 110,160 210,160 210,180 90,180" fill="url(#eulerhub-gradient)"/>
    <!-- Stylized H -->
    <polygon points="90,210 90,60 110,60 110,110 190,110 190,60 210,60 210,210 190,210 190,130 110,130 110,210" fill="url(#eulerhub-gradient)"/>
  </g>
  <text x="150" y="265" text-anchor="middle" font-size="38" font-family="Inter, Arial, sans-serif" fill="#6573ff" font-weight="bold" letter-spacing="2">EulerHub</text>
</svg>